# xmcd
#
# Track frame offsets:
#	183
#	12788
#	24595
#	43713
#	54528
#	64420
#	78865
#	94303
#	111475
#	126760
#	138098
#	150150
#	162455
#	176408
#	191620
#	204593
#	216153
#	229628
#
# Disc length: 3319
#
# Revision: 1
# Processed by: cddbd v1.5.1PL0 Copyright (c) Steve Scherf et al.
# Submitted via: CDex 1.51
# Normalized: r0:DSETVAR1,TDELIM( - )
#
DISCID=f00cf512
DTITLE=Various Artist - Heart Of The Country - Capitol 50th Year Anniversary
DYEAR=1992
DGENRE=Country
TTITLE0=Tex Ritter - High Noon
TTITLE1=Tennessee Ernie Ford - Sixteen Tons
TTITLE2=Bobbie Gentry - Ode To Billy Joe
TTITLE3=Ferlin Husky - Gone
TTITLE4=Anne Murray - Snowbird
TTITLE5=Glen Campbell - Rhinestone Cowboy
TTITLE6=Juice Newton - Queen Of Hearts
TTITLE7=Don Williams - Old Coyote Town
TTITLE8=Tanya Tucker - Delta Dawn
TTITLE9=Sonny James - Young Love
TTITLE10=Wanda Jackson - Stand By Your Man
TTITLE11=Merle Haggard - Okie From Muskogee
TTITLE12=Asleep At The Wheel - Miles And Miles Of Texas
TTITLE13=Jessi Colter - I'm Not Lisa
TTITLE14=Dr Hook - Sharing The Night Together
TTITLE15=Crystal Gayle - Never Ending Song Of Love
TTITLE16=T. Graham Brown - I Tell It Like It Used To Be
TTITLE17=Garth Brooks - Shameless
EXTD=YEAR: 1992
EXTT0=
EXTT1=
EXTT2=
EXTT3=
EXTT4=
EXTT5=
EXTT6=
EXTT7=
EXTT8=
EXTT9=
EXTT10=
EXTT11=
EXTT12=
EXTT13=
EXTT14=
EXTT15=
EXTT16=
EXTT17=
PLAYORDER=
